<svg xmlns="http://www.w3.org/2000/svg" viewBox="0 0 1200 630" width="1200" height="630"><rect width="1200" height="630" fill="#123566"/><svg x="798.0" y="141.8" width="330.0" height="346.5" viewBox="0 -4 80 84" overflow="visible"><g class="part"><g class="depth"><path d="M40.0 30.3L75.7 50.9L40.0 71.6L4.3 50.9Z" fill="#1d4677"/><path d="M4.3 53.5L40.0 74.1L40.0 71.6L4.3 50.9Z" fill="#173b66"/><path d="M75.7 53.5L40.0 74.1L40.0 71.6L75.7 50.9Z" fill="#12325a"/></g></g><g class="part"><g class="depth"><path d="M37.8 10.9L61.6 24.7L59.0 26.2L35.2 12.4Z" fill="#86a8d8"/><path d="M35.2 36.5L59.0 50.3L59.0 26.2L35.2 12.4Z" fill="#4a74b0"/><path d="M61.6 48.8L59.0 50.3L59.0 26.2L61.6 24.7Z" fill="#3a639e"/><path d="M36.6 17.6L57.5 29.6L57.5 27.1L36.6 15.0Z" fill="#ff9500"/><path d="M36.6 35.2L46.3 40.8L46.3 25.8L36.6 20.2Z" fill="#e6edf6"/><path d="M48.2 29.8L57.5 35.2L57.5 33.1L48.2 27.7Z" fill="#b9c7da"/><path d="M48.2 34.1L57.5 39.5L57.5 37.4L48.2 32.0Z" fill="#b9c7da"/><path d="M48.2 38.4L53.8 41.7L53.8 39.5L48.2 36.3Z" fill="#b9c7da"/></g></g><g class="part"><g class="depth"><path d="M25.8 40.6L39.3 48.3L28.8 54.4L15.4 46.6Z" fill="#ffb547"/><path d="M15.4 48.8L28.8 56.5L28.8 54.4L15.4 46.6Z" fill="#ff9500"/><path d="M39.3 50.5L28.8 56.5L28.8 54.4L39.3 48.3Z" fill="#e07f00"/><path d="M25.8 42.8L33.7 47.3L31.4 48.6L23.6 44.0Z" fill="#fff3dc"/></g></g><g class="part"><g class="depth"><path d="M43.7 37.6L52.7 42.8L50.4 44.0L41.5 38.9Z" fill="#86a8d8"/><path d="M41.5 56.9L50.4 62.1L50.4 44.0L41.5 38.9Z" fill="#4a74b0"/><path d="M52.7 60.8L50.4 62.1L50.4 44.0L52.7 42.8Z" fill="#3a639e"/><path d="M42.2 55.2L49.7 59.5L49.7 45.3L42.2 41.0Z" fill="#e6edf6"/><path d="M43.0 45.8L48.9 49.2L48.9 46.6L43.0 43.2Z" fill="#ff9500"/></g></g></svg><svg x="72" y="72" width="210.0" height="89.5" viewBox="91 88 608 259" overflow="visible"><path fill="#fff" d="M301.3 250H267l-57.2-86.6V250h-34.2V109.6h34.2l57.2 87v-87h34.2Zm19.6-141.6q0-8 5.7-13.3t14.7-5.3q8.8 0 14.5 5.3t5.7 13.3q0 7.8-5.7 13.1t-14.5 5.3q-9 0-14.7-5.3t-5.7-13.1m37.4 30V250H324V138.4ZM492 184.8V250h-34v-60.6q0-11.2-5.7-17.4t-15.6-6.2T421 172t-5.8 17.4V250H381V138.4h34.2v14.8q5.2-7.4 14-11.7t19.8-4.3q19.6 0 31.3 12.7t11.7 34.9m126.5 17.6H541q.8 10.4 6.7 15.9t14.5 5.5q12.8 0 17.8-10.8h36.4q-2.8 11-10.1 19.8T588 246.6t-24.6 5q-16.4 0-29.2-7t-20-20-7.2-30.4 7-30.4q7.2-13 20-20t29.4-7q16.2 0 28.8 6.8T612 163t7 29.4q0 4.8-.5 10m-34.4-19q0-8.8-6-14t-15-5.2q-8.6 0-14.5 5t-7.3 14.2Z"/><path fill="#9fb0c4" d="M119.3 306v5.3H109V345h-6.4v-33.7H92.2V306Zm38.9 5.2v11.5h13.4v5.2h-13.4v11.9h15v5.2h-21.4v-39h21.5v5.2Zm66.7-5.6q6.2 0 11 3 4.9 3 7 8.7h-7.6q-1.5-3.1-4.2-4.6t-6.2-1.5q-3.9 0-7 1.7-3 1.7-4.6 5-1.7 3.2-1.7 7.6t1.7 7.5q1.7 3.3 4.7 5t6.9 1.8q3.5 0 6.2-1.5t4.2-4.6h7.7q-2.2 5.6-7 8.6-4.9 3-11.1 3-5.5 0-10-2.5-4.6-2.6-7.2-7.1t-2.7-10.2 2.7-10.3q2.6-4.5 7.2-7 4.5-2.6 10-2.6m82.6.4v39h-6.4v-17h-18.3v17h-6.4v-39h6.4v16.8h18.3V306Zm66.4 39h-6.4l-19.2-29v29h-6.4v-39h6.4l19.2 29v-29h6.4Zm32.2-19.5q0-5.8 2.7-10.3t7.2-7 10-2.6 10 2.5q4.6 2.6 7.3 7.1 2.6 4.5 2.6 10.3 0 5.7-2.6 10.2-2.7 4.6-7.2 7.1-4.6 2.6-10 2.6t-10-2.6-7.3-7-2.7-10.3m33.3 0q0-4.4-1.8-7.6-1.7-3.3-4.7-5t-6.9-1.7-6.9 1.7-4.7 5-1.7 7.6 1.7 7.5 4.7 5 7 1.8 6.8-1.7 4.7-5 1.8-7.6m45.2 14.3h13.1v5.2h-19.5v-39h6.4Zm42.4-14.3q0-5.8 2.6-10.3t7.2-7 10-2.6 10 2.5 7.2 7.1 2.7 10.3-2.7 10.2-7.2 7.1-10 2.6q-5.4 0-10-2.6-4.6-2.5-7.2-7t-2.7-10.3m33.1 0q0-4.4-1.7-7.6-1.7-3.3-4.7-5t-7-1.7-6.8 1.7-4.7 5-1.7 7.6 1.7 7.5 4.7 5 6.9 1.8 6.9-1.7 4.7-5 1.7-7.6m67.1-8.2q-1.5-3-4.2-4.4t-6.2-1.5q-3.9 0-6.9 1.7-3 1.8-4.7 5t-1.7 7.4 1.7 7.4 4.7 5q3 1.7 6.9 1.7 5.2 0 8.5-3 3.2-2.9 4-7.8h-14.7v-5.1H636v5q-.7 4.5-3.3 8.3t-6.7 6-9.3 2.3q-5.5 0-10-2.5-4.6-2.6-7.2-7.1t-2.7-10.2 2.7-10.3q2.6-4.5 7.2-7 4.6-2.6 10-2.6 6.2 0 11 3 4.9 3 7 8.7ZM697 306l-12.7 25v14h-6.4v-14.1l-13-24.8h7.2l9 19 9-19Z"/><path fill="#ff9500" d="M640.7 224h26v26h-26z"/></svg><path d="M81.3 191Q84.1 191 86.3 192.5Q88.4 193.9 89.2 196.5H85.3Q84.8 195.3 83.7 194.7Q82.7 194.1 81.3 194.1Q79.8 194.1 78.7 194.7Q77.6 195.4 76.9 196.7Q76.3 197.9 76.3 199.6Q76.3 201.3 76.9 202.5Q77.6 203.8 78.7 204.5Q79.8 205.1 81.3 205.1Q82.7 205.1 83.7 204.5Q84.8 203.9 85.3 202.7H89.2Q88.4 205.3 86.3 206.7Q84.2 208.1 81.3 208.1Q78.9 208.1 77 207.1Q75.1 206 74 204Q72.8 202.1 72.8 199.6Q72.8 197.1 74 195.2Q75.1 193.2 77 192.1Q78.9 191 81.3 191Z M91.2 201.4Q91.2 199.3 92.1 197.8Q93 196.2 94.6 195.3Q96.2 194.5 98.1 194.5Q100 194.5 101.6 195.3Q103.1 196.2 104 197.8Q104.9 199.3 104.9 201.4Q104.9 203.4 104 205Q103.1 206.5 101.5 207.4Q99.9 208.2 98 208.2Q96.1 208.2 94.5 207.4Q93 206.5 92.1 205Q91.2 203.4 91.2 201.4ZM101.5 201.4Q101.5 199.5 100.5 198.4Q99.5 197.4 98 197.4Q96.6 197.4 95.6 198.4Q94.7 199.5 94.7 201.4Q94.7 203.2 95.6 204.3Q96.6 205.3 98 205.3Q98.9 205.3 99.7 204.8Q100.5 204.4 101 203.5Q101.5 202.6 101.5 201.4Z M106.7 203.8H110.1Q110.2 204.6 110.8 205.1Q111.5 205.6 112.5 205.6Q113.4 205.6 114 205.2Q114.5 204.8 114.5 204.2Q114.5 203.6 113.8 203.2Q113.2 202.9 111.7 202.5Q110.3 202.2 109.3 201.8Q108.4 201.4 107.7 200.6Q107 199.8 107 198.5Q107 197.4 107.6 196.5Q108.3 195.5 109.5 195Q110.6 194.5 112.2 194.5Q114.6 194.5 116 195.7Q117.5 196.9 117.6 198.9H114.4Q114.3 198.1 113.7 197.6Q113.1 197.2 112.2 197.2Q111.2 197.2 110.7 197.5Q110.3 197.8 110.3 198.4Q110.3 199.1 110.9 199.4Q111.6 199.8 113 200.2Q114.5 200.5 115.4 200.9Q116.3 201.3 117 202.1Q117.7 202.9 117.7 204.2Q117.7 205.4 117.1 206.3Q116.4 207.2 115.3 207.7Q114.1 208.2 112.5 208.2Q110.9 208.2 109.6 207.6Q108.3 207 107.5 206Q106.8 205 106.7 203.8Z M124.4 197.5V203.9Q124.4 204.6 124.7 204.9Q125 205.2 125.8 205.2H127.4V208H125.3Q121 208 121 203.9V197.5H119.4V194.7H121V191.4H124.4V194.7H127.4V197.5Z M129.1 203.8H132.5Q132.6 204.6 133.2 205.1Q133.9 205.6 134.9 205.6Q135.8 205.6 136.4 205.2Q136.9 204.8 136.9 204.2Q136.9 203.6 136.2 203.2Q135.6 202.9 134.1 202.5Q132.6 202.2 131.7 201.8Q130.8 201.4 130.1 200.6Q129.4 199.8 129.4 198.5Q129.4 197.4 130 196.5Q130.7 195.5 131.8 195Q133 194.5 134.6 194.5Q137 194.5 138.4 195.7Q139.8 196.9 140 198.9H136.8Q136.7 198.1 136.1 197.6Q135.5 197.2 134.5 197.2Q133.6 197.2 133.1 197.5Q132.6 197.8 132.6 198.4Q132.6 199.1 133.3 199.4Q134 199.8 135.4 200.2Q136.8 200.5 137.8 200.9Q138.7 201.3 139.4 202.1Q140.1 202.9 140.1 204.2Q140.1 205.4 139.5 206.3Q138.8 207.2 137.7 207.7Q136.5 208.2 134.9 208.2Q133.2 208.2 132 207.6Q130.7 207 129.9 206Q129.1 205 129.1 203.8Z" fill="#FF9500"/><rect x="72" y="220" width="69.2" height="3" fill="#FF9500"/><path d="M109.5 331.2V370.5H99.9V354.3H85V370.5H75.5V331.2H85V346.6H99.9V331.2Z M114.5 354.9Q114.5 350.1 116.6 346.4Q118.8 342.7 122.5 340.8Q126.2 338.8 130.7 338.8Q135.3 338.8 139 340.8Q142.7 342.7 144.9 346.4Q147 350.1 147 354.9Q147 359.7 144.8 363.4Q142.7 367 138.9 369Q135.2 371 130.6 371Q126 371 122.4 369Q118.7 367 116.6 363.4Q114.5 359.8 114.5 354.9ZM137.2 354.9Q137.2 351.1 135.4 349.1Q133.5 347.1 130.7 347.1Q127.9 347.1 126.1 349.1Q124.2 351.1 124.2 354.9Q124.2 358.6 126.1 360.7Q127.9 362.7 130.6 362.7Q133.4 362.7 135.3 360.7Q137.2 358.6 137.2 354.9Z M196.9 339.3 188.5 370.5H177.9L173 350.2L167.9 370.5H157.3L148.8 339.3H158.4L162.8 361.6L168.1 339.3H178.2L183.6 361.5L187.9 339.3Z M265 352.3V370.5H255.5V353.6Q255.5 350.5 253.9 348.9Q252.3 347.2 249.5 347.2Q246.7 347.2 245.1 348.9Q243.5 350.5 243.5 353.6V370.5H234V353.6Q234 350.5 232.4 348.9Q230.8 347.2 228 347.2Q225.2 347.2 223.6 348.9Q222 350.5 222 353.6V370.5H212.4V339.3H222V343.2Q223.5 341.2 225.8 340.1Q228.2 338.9 231.2 338.9Q234.7 338.9 237.5 340.4Q240.2 342 241.8 344.8Q243.4 342.2 246.2 340.6Q249 338.9 252.3 338.9Q258.1 338.9 261.6 342.5Q265 346 265 352.3Z M302.6 339.3V370.5H293V366.3Q291.6 368.3 289.1 369.6Q286.6 370.9 283.6 370.9Q280 370.9 277.2 369.3Q274.5 367.7 273 364.6Q271.5 361.6 271.5 357.5V339.3H281V356.2Q281 359.4 282.6 361.1Q284.2 362.8 287 362.8Q289.8 362.8 291.4 361.1Q293 359.4 293 356.2V339.3Z M323.3 338.8Q329.2 338.8 333.1 341.9Q337 345 338.3 350.6H328.1Q326.8 347 323.1 347Q320.5 347 318.9 349Q317.3 351.1 317.3 354.9Q317.3 358.7 318.9 360.7Q320.5 362.8 323.1 362.8Q326.8 362.8 328.1 359.2H338.3Q337 364.7 333.1 367.8Q329.1 371 323.3 371Q318.7 371 315.1 369Q311.6 367 309.6 363.4Q307.6 359.8 307.6 354.9Q307.6 350 309.6 346.4Q311.6 342.7 315.1 340.8Q318.7 338.8 323.3 338.8Z M374.5 352.3V370.5H364.9V353.6Q364.9 350.4 363.3 348.7Q361.7 346.9 358.9 346.9Q356.2 346.9 354.6 348.7Q353 350.4 353 353.6V370.5H343.4V329.1H353V343.5Q354.4 341.4 356.9 340.2Q359.4 338.9 362.6 338.9Q368 338.9 371.2 342.5Q374.5 346 374.5 352.3Z M404.9 338.8Q407.9 338.8 410.5 340.1Q413 341.4 414.5 343.6V329.1H424.1V370.5H414.5V366Q413.2 368.3 410.7 369.6Q408.2 371 404.9 371Q401 371 397.9 369Q394.7 367 392.9 363.3Q391.1 359.7 391.1 354.8Q391.1 350 392.9 346.4Q394.7 342.7 397.9 340.8Q401 338.8 404.9 338.8ZM407.7 347.2Q404.8 347.2 402.8 349.2Q400.8 351.3 400.8 354.8Q400.8 358.4 402.8 360.5Q404.8 362.6 407.7 362.6Q410.5 362.6 412.5 360.6Q414.5 358.5 414.5 354.9Q414.5 351.3 412.5 349.2Q410.5 347.2 407.7 347.2Z M429.1 354.9Q429.1 350.1 431.2 346.4Q433.4 342.7 437.1 340.8Q440.8 338.8 445.4 338.8Q449.9 338.8 453.6 340.8Q457.3 342.7 459.5 346.4Q461.6 350.1 461.6 354.9Q461.6 359.7 459.4 363.4Q457.3 367 453.6 369Q449.8 371 445.2 371Q440.6 371 437 369Q433.3 367 431.2 363.4Q429.1 359.8 429.1 354.9ZM451.8 354.9Q451.8 351.1 450 349.1Q448.1 347.1 445.4 347.1Q442.6 347.1 440.7 349.1Q438.9 351.1 438.9 354.9Q438.9 358.6 440.7 360.7Q442.5 362.7 445.2 362.7Q448 362.7 449.9 360.7Q451.8 358.6 451.8 354.9Z M496 357.2H474.3Q474.5 360.1 476.2 361.6Q477.8 363.2 480.2 363.2Q483.8 363.2 485.2 360.2H495.4Q494.6 363.2 492.6 365.7Q490.5 368.2 487.5 369.6Q484.4 371 480.6 371Q476 371 472.4 369Q468.8 367 466.8 363.4Q464.8 359.8 464.8 354.9Q464.8 350 466.8 346.4Q468.8 342.7 472.3 340.8Q475.9 338.8 480.6 338.8Q485.1 338.8 488.6 340.7Q492.2 342.6 494.2 346.2Q496.1 349.7 496.1 354.4Q496.1 355.7 496 357.2ZM486.3 351.9Q486.3 349.4 484.7 348Q483 346.5 480.5 346.5Q478.1 346.5 476.4 347.9Q474.8 349.3 474.4 351.9Z M499.5 360.3H509Q509.1 361.9 510.5 362.9Q511.8 363.9 513.8 363.9Q515.6 363.9 516.6 363.2Q517.5 362.5 517.5 361.4Q517.5 360 516.1 359.4Q514.7 358.8 511.6 358Q508.2 357.2 506 356.3Q503.8 355.5 502.1 353.6Q500.5 351.7 500.5 348.5Q500.5 345.8 502 343.6Q503.5 341.4 506.4 340.1Q509.2 338.8 513.2 338.8Q519.1 338.8 522.5 341.7Q525.9 344.6 526.4 349.5H517.5Q517.3 347.8 516.1 346.9Q514.9 345.9 512.9 345.9Q511.3 345.9 510.4 346.6Q509.5 347.2 509.5 348.3Q509.5 349.7 510.9 350.4Q512.3 351 515.4 351.7Q518.8 352.6 521 353.5Q523.2 354.3 524.8 356.3Q526.5 358.2 526.6 361.4Q526.6 364.2 525 366.3Q523.5 368.5 520.6 369.7Q517.7 371 513.9 371Q509.8 371 506.6 369.6Q503.4 368.2 501.6 365.7Q499.7 363.3 499.5 360.3Z M556.2 338.8Q559.5 338.8 562 340.2Q564.5 341.5 565.8 343.7V339.3H575.4V370.5H565.8V366.1Q564.4 368.3 561.9 369.6Q559.4 371 556.1 371Q552.3 371 549.2 369Q546 367 544.2 363.3Q542.4 359.7 542.4 354.8Q542.4 350 544.2 346.4Q546 342.7 549.2 340.8Q552.3 338.8 556.2 338.8ZM559 347.2Q556.1 347.2 554.1 349.2Q552.1 351.3 552.1 354.8Q552.1 358.4 554.1 360.5Q556.1 362.6 559 362.6Q561.8 362.6 563.8 360.6Q565.8 358.5 565.8 354.9Q565.8 351.3 563.8 349.2Q561.8 347.2 559 347.2Z" fill="#FFFFFF"/><path d="M120.3 404.2 111.9 435.5H101.3L96.4 415.2L91.3 435.5H80.7L72.2 404.2H81.8L86.2 426.6L91.5 404.2H101.6L106.9 426.5L111.3 404.2Z M153.3 422.2H131.6Q131.8 425.1 133.5 426.6Q135.1 428.1 137.5 428.1Q141.1 428.1 142.5 425.1H152.7Q151.9 428.2 149.9 430.7Q147.8 433.1 144.7 434.5Q141.7 435.9 137.9 435.9Q133.3 435.9 129.7 434Q126.1 432 124.1 428.4Q122.1 424.7 122.1 419.9Q122.1 415 124.1 411.3Q126 407.7 129.6 405.7Q133.2 403.8 137.9 403.8Q142.4 403.8 145.9 405.7Q149.4 407.6 151.4 411.1Q153.4 414.6 153.4 419.4Q153.4 420.7 153.3 422.2ZM143.6 416.8Q143.6 414.4 141.9 412.9Q140.3 411.5 137.7 411.5Q135.3 411.5 133.7 412.9Q132 414.3 131.6 416.8Z M177.7 403.8Q181.5 403.8 184.7 405.7Q187.8 407.7 189.6 411.3Q191.4 415 191.4 419.8Q191.4 424.6 189.6 428.3Q187.8 432 184.7 433.9Q181.5 435.9 177.7 435.9Q174.4 435.9 171.9 434.6Q169.4 433.3 168 431.1V435.5H158.5V394H168V408.7Q169.4 406.5 171.9 405.1Q174.4 403.8 177.7 403.8ZM174.8 412.1Q172 412.1 170 414.2Q168 416.3 168 419.9Q168 423.4 170 425.5Q172 427.6 174.8 427.6Q177.7 427.6 179.7 425.5Q181.7 423.4 181.7 419.8Q181.7 416.2 179.7 414.2Q177.7 412.1 174.8 412.1Z M194.8 425.2H204.3Q204.4 426.9 205.8 427.9Q207.1 428.9 209.1 428.9Q210.9 428.9 211.9 428.2Q212.8 427.5 212.8 426.4Q212.8 425 211.4 424.4Q210 423.7 206.9 422.9Q203.5 422.2 201.3 421.3Q199.1 420.4 197.4 418.5Q195.8 416.7 195.8 413.5Q195.8 410.8 197.3 408.6Q198.8 406.4 201.7 405.1Q204.6 403.8 208.5 403.8Q214.4 403.8 217.8 406.7Q221.2 409.6 221.7 414.4H212.8Q212.6 412.8 211.4 411.8Q210.2 410.9 208.2 410.9Q206.6 410.9 205.7 411.5Q204.8 412.2 204.8 413.3Q204.8 414.6 206.2 415.3Q207.6 416 210.7 416.7Q214.1 417.6 216.3 418.4Q218.5 419.3 220.1 421.2Q221.8 423.2 221.9 426.4Q221.9 429.2 220.3 431.3Q218.8 433.5 215.9 434.7Q213 435.9 209.2 435.9Q205.1 435.9 201.9 434.5Q198.7 433.1 196.9 430.7Q195 428.3 194.8 425.2Z M226.8 395.8Q226.8 393.6 228.4 392.1Q230 390.6 232.6 390.6Q235 390.6 236.6 392.1Q238.2 393.6 238.2 395.8Q238.2 398 236.6 399.5Q235 401 232.6 401Q230 401 228.4 399.5Q226.8 398 226.8 395.8ZM237.3 404.2V435.5H227.7V404.2Z M261.7 427.4V435.5H256.8Q251.6 435.5 248.7 432.9Q245.8 430.4 245.8 424.6V412.2H242V404.2H245.8V396.6H255.3V404.2H261.6V412.2H255.3V424.7Q255.3 426.1 256 426.7Q256.7 427.4 258.3 427.4Z M296.3 422.2H274.6Q274.8 425.1 276.5 426.6Q278.1 428.1 280.5 428.1Q284.1 428.1 285.5 425.1H295.7Q294.9 428.2 292.9 430.7Q290.8 433.1 287.8 434.5Q284.7 435.9 280.9 435.9Q276.3 435.9 272.7 434Q269.1 432 267.1 428.4Q265.1 424.7 265.1 419.9Q265.1 415 267.1 411.3Q269.1 407.7 272.6 405.7Q276.2 403.8 280.9 403.8Q285.4 403.8 288.9 405.7Q292.5 407.6 294.5 411.1Q296.4 414.6 296.4 419.4Q296.4 420.7 296.3 422.2ZM286.6 416.8Q286.6 414.4 285 412.9Q283.3 411.5 280.8 411.5Q278.4 411.5 276.7 412.9Q275.1 414.3 274.7 416.8Z M327.1 403.8Q333 403.8 337 406.9Q340.9 409.9 342.1 415.5H332Q330.7 412 327 412Q324.3 412 322.8 414Q321.2 416 321.2 419.9Q321.2 423.7 322.8 425.7Q324.3 427.8 327 427.8Q330.7 427.8 332 424.2H342.1Q340.9 429.7 336.9 432.8Q333 435.9 327.1 435.9Q322.5 435.9 319 434Q315.4 432 313.4 428.4Q311.5 424.7 311.5 419.9Q311.5 415 313.4 411.3Q315.4 407.7 319 405.7Q322.5 403.8 327.1 403.8Z M345.3 419.9Q345.3 415 347.5 411.4Q349.6 407.7 353.3 405.7Q357 403.8 361.6 403.8Q366.2 403.8 369.9 405.7Q373.6 407.7 375.7 411.4Q377.8 415 377.8 419.9Q377.8 424.7 375.7 428.3Q373.5 432 369.8 434Q366.1 435.9 361.5 435.9Q356.9 435.9 353.2 434Q349.5 432 347.4 428.4Q345.3 424.7 345.3 419.9ZM368.1 419.9Q368.1 416.1 366.2 414.1Q364.3 412.1 361.6 412.1Q358.8 412.1 356.9 414.1Q355.1 416 355.1 419.9Q355.1 423.6 356.9 425.6Q358.7 427.6 361.5 427.6Q364.2 427.6 366.1 425.6Q368.1 423.6 368.1 419.9Z M381.2 425.2H390.7Q390.9 426.9 392.2 427.9Q393.6 428.9 395.5 428.9Q397.3 428.9 398.3 428.2Q399.3 427.5 399.3 426.4Q399.3 425 397.9 424.4Q396.5 423.7 393.3 422.9Q390 422.2 387.7 421.3Q385.5 420.4 383.9 418.5Q382.2 416.7 382.2 413.5Q382.2 410.8 383.7 408.6Q385.2 406.4 388.1 405.1Q391 403.8 395 403.8Q400.8 403.8 404.2 406.7Q407.6 409.6 408.1 414.4H399.3Q399 412.8 397.8 411.8Q396.6 410.9 394.7 410.9Q393 410.9 392.1 411.5Q391.2 412.2 391.2 413.3Q391.2 414.6 392.6 415.3Q394.1 416 397.1 416.7Q400.6 417.6 402.7 418.4Q404.9 419.3 406.6 421.2Q408.2 423.2 408.3 426.4Q408.3 429.2 406.7 431.3Q405.2 433.5 402.3 434.7Q399.4 435.9 395.6 435.9Q391.5 435.9 388.3 434.5Q385.2 433.1 383.3 430.7Q381.5 428.3 381.2 425.2Z M431.6 427.4V435.5H426.7Q421.5 435.5 418.6 432.9Q415.7 430.4 415.7 424.6V412.2H411.9V404.2H415.7V396.6H425.2V404.2H431.5V412.2H425.2V424.7Q425.2 426.1 425.9 426.7Q426.6 427.4 428.2 427.4Z M447.9 395.8Q447.9 393.6 449.5 392.1Q451.1 390.6 453.6 390.6Q456 390.6 457.6 392.1Q459.2 393.6 459.2 395.8Q459.2 398 457.6 399.5Q456 401 453.6 401Q451.1 401 449.5 399.5Q447.9 398 447.9 395.8ZM458.3 404.2V435.5H448.8V404.2Z M496.4 417.2V435.5H486.8V418.5Q486.8 415.4 485.2 413.6Q483.6 411.9 480.9 411.9Q478.1 411.9 476.5 413.6Q474.9 415.4 474.9 418.5V435.5H465.3V404.2H474.9V408.4Q476.3 406.3 478.8 405.1Q481.2 403.9 484.3 403.9Q489.8 403.9 493.1 407.5Q496.4 411 496.4 417.2Z M550.1 435.5H540.5L524.5 411.2V435.5H514.9V396.2H524.5L540.5 420.5V396.2H550.1Z M586.3 422.2H564.6Q564.9 425.1 566.5 426.6Q568.2 428.1 570.6 428.1Q574.2 428.1 575.6 425.1H585.7Q585 428.2 582.9 430.7Q580.9 433.1 577.8 434.5Q574.7 435.9 570.9 435.9Q566.3 435.9 562.7 434Q559.1 432 557.1 428.4Q555.1 424.7 555.1 419.9Q555.1 415 557.1 411.3Q559.1 407.7 562.7 405.7Q566.3 403.8 570.9 403.8Q575.4 403.8 579 405.7Q582.5 407.6 584.5 411.1Q586.5 414.6 586.5 419.4Q586.5 420.7 586.3 422.2ZM576.7 416.8Q576.7 414.4 575 412.9Q573.3 411.5 570.8 411.5Q568.4 411.5 566.7 412.9Q565.1 414.3 564.7 416.8Z M610.7 403.8Q614.6 403.8 617.7 405.7Q620.9 407.7 622.7 411.3Q624.5 415 624.5 419.8Q624.5 424.6 622.7 428.3Q620.9 432 617.7 433.9Q614.6 435.9 610.7 435.9Q607.5 435.9 605 434.6Q602.5 433.2 601.1 431.1V450.4H591.5V404.2H601.1V408.7Q602.5 406.5 605 405.1Q607.4 403.8 610.7 403.8ZM607.9 412.1Q605 412.1 603 414.2Q601 416.3 601 419.9Q601 423.4 603 425.5Q605 427.6 607.9 427.6Q610.7 427.6 612.7 425.5Q614.8 423.4 614.8 419.8Q614.8 416.2 612.8 414.2Q610.8 412.1 607.9 412.1Z M641.4 403.8Q644.7 403.8 647.2 405.1Q649.7 406.5 651 408.7V404.2H660.6V435.5H651V431.1Q649.6 433.2 647.1 434.6Q644.7 435.9 641.4 435.9Q637.5 435.9 634.4 433.9Q631.3 432 629.5 428.3Q627.6 424.6 627.6 419.8Q627.6 415 629.5 411.3Q631.3 407.7 634.4 405.7Q637.5 403.8 641.4 403.8ZM644.2 412.1Q641.4 412.1 639.4 414.2Q637.4 416.2 637.4 419.8Q637.4 423.4 639.4 425.5Q641.4 427.6 644.2 427.6Q647.1 427.6 649.1 425.5Q651 423.4 651 419.9Q651 416.3 649.1 414.2Q647.1 412.1 644.2 412.1Z M677.1 394V435.5H667.6V394Z M708.8 406Q708.8 411.2 705.3 414.2Q701.9 417.1 696.2 417.2L696 421.4H687.6L687.3 411H690.6Q694.9 411 697.2 409.9Q699.5 408.8 699.5 406Q699.5 404.1 698.4 402.9Q697.4 401.8 695.4 401.8Q693.4 401.8 692.3 403Q691.2 404.1 691.2 406.1H682.2Q682.1 402.7 683.6 399.9Q685.1 397.2 688.2 395.6Q691.2 394 695.6 394Q701.6 394 705.2 397.1Q708.8 400.3 708.8 406ZM686.2 430.8Q686.2 428.5 687.7 427Q689.3 425.5 691.9 425.5Q694.3 425.5 695.9 427Q697.5 428.5 697.5 430.8Q697.5 433 695.9 434.4Q694.3 435.9 691.9 435.9Q689.3 435.9 687.7 434.4Q686.2 433 686.2 430.8Z" fill="#FFFFFF"/><path d="M85.1 550.9V558H82.1V551.3Q82.1 549.8 81.3 549Q80.6 548.3 79.3 548.3Q78.1 548.3 77.3 549Q76.6 549.8 76.6 551.3V558H73.5V545.8H76.6V547.3Q77.2 546.5 78.2 546.1Q79.1 545.6 80.3 545.6Q82.5 545.6 83.8 547Q85.1 548.4 85.1 550.9Z M87.7 542.6Q87.7 541.8 88.3 541.3Q88.8 540.8 89.6 540.8Q90.4 540.8 91 541.3Q91.5 541.8 91.5 542.6Q91.5 543.3 91 543.8Q90.4 544.4 89.6 544.4Q88.8 544.4 88.3 543.8Q87.7 543.3 87.7 542.6ZM91.1 545.8V558H88.1V545.8Z M105.8 550.9V558H102.7V551.3Q102.7 549.8 102 549Q101.3 548.3 100 548.3Q98.7 548.3 98 549Q97.3 549.8 97.3 551.3V558H94.2V545.8H97.3V547.3Q97.9 546.5 98.8 546.1Q99.8 545.6 100.9 545.6Q103.1 545.6 104.5 547Q105.8 548.4 105.8 550.9Z M120 552.8H111Q111.2 554.1 112 554.9Q112.8 555.6 114 555.6Q115.7 555.6 116.4 554.2H119.7Q119.2 555.9 117.7 557.1Q116.2 558.2 114 558.2Q112.3 558.2 110.9 557.4Q109.5 556.6 108.7 555.2Q107.9 553.8 107.9 551.9Q107.9 550 108.7 548.6Q109.5 547.2 110.9 546.4Q112.2 545.6 114 545.6Q115.8 545.6 117.2 546.4Q118.5 547.1 119.3 548.5Q120 549.9 120 551.6Q120 552.3 120 552.8ZM116.9 550.8Q116.8 549.6 116 548.9Q115.2 548.1 114 548.1Q112.8 548.1 112 548.8Q111.2 549.5 111.1 550.8Z M125.9 548.3V554.2Q125.9 554.9 126.2 555.1Q126.5 555.4 127.2 555.4H128.6V558H126.7Q122.8 558 122.8 554.2V548.3H121.3V545.8H122.8V542.8H125.9V545.8H128.6V548.3Z M142.1 552.8H133.2Q133.3 554.1 134.1 554.9Q134.9 555.6 136.1 555.6Q137.8 555.6 138.5 554.2H141.8Q141.3 555.9 139.8 557.1Q138.3 558.2 136.2 558.2Q134.4 558.2 133 557.4Q131.6 556.6 130.8 555.2Q130 553.8 130 551.9Q130 550 130.8 548.6Q131.6 547.2 133 546.4Q134.3 545.6 136.2 545.6Q137.9 545.6 139.3 546.4Q140.6 547.1 141.4 548.5Q142.2 549.9 142.2 551.6Q142.2 552.3 142.1 552.8ZM139 550.8Q138.9 549.6 138.1 548.9Q137.3 548.1 136.1 548.1Q134.9 548.1 134.1 548.8Q133.4 549.5 133.2 550.8Z M149.6 545.6Q151.9 545.6 153.4 546.7Q154.9 547.9 155.4 549.9H152.1Q151.8 549.1 151.2 548.7Q150.5 548.2 149.6 548.2Q148.3 548.2 147.5 549.2Q146.8 550.1 146.8 551.9Q146.8 553.6 147.5 554.6Q148.3 555.6 149.6 555.6Q151.5 555.6 152.1 553.9H155.4Q154.9 555.9 153.4 557Q151.9 558.2 149.6 558.2Q147.9 558.2 146.5 557.4Q145.2 556.6 144.4 555.2Q143.6 553.8 143.6 551.9Q143.6 550 144.4 548.6Q145.2 547.2 146.5 546.4Q147.9 545.6 149.6 545.6Z M169.3 550.9V558H166.2V551.3Q166.2 549.8 165.5 549Q164.7 548.3 163.5 548.3Q162.2 548.3 161.5 549Q160.7 549.8 160.7 551.3V558H157.6V541.7H160.7V547.3Q161.3 546.5 162.3 546.1Q163.3 545.6 164.5 545.6Q165.9 545.6 167 546.2Q168.1 546.8 168.7 548Q169.3 549.2 169.3 550.9Z M171.5 554.1H174.6Q174.7 554.9 175.3 555.3Q175.9 555.8 176.8 555.8Q177.7 555.8 178.2 555.4Q178.7 555.1 178.7 554.5Q178.7 553.9 178.1 553.6Q177.5 553.3 176.2 553Q174.8 552.7 173.9 552.3Q173.1 552 172.4 551.2Q171.8 550.5 171.8 549.3Q171.8 548.3 172.4 547.4Q173 546.6 174.1 546.1Q175.2 545.6 176.6 545.6Q178.8 545.6 180.1 546.7Q181.4 547.8 181.5 549.6H178.6Q178.5 548.9 178 548.5Q177.4 548.1 176.5 548.1Q175.7 548.1 175.3 548.4Q174.8 548.7 174.8 549.2Q174.8 549.8 175.4 550.2Q176 550.5 177.3 550.8Q178.7 551.1 179.5 551.5Q180.4 551.8 181 552.6Q181.6 553.3 181.6 554.5Q181.6 555.6 181.1 556.4Q180.5 557.3 179.4 557.7Q178.3 558.2 176.9 558.2Q175.4 558.2 174.2 557.7Q173 557.1 172.3 556.2Q171.6 555.3 171.5 554.1Z M195.8 545.8 188.3 563.8H185L187.7 557.7L182.8 545.8H186.2L189.4 554.3L192.6 545.8Z M196.8 554.1H199.9Q200 554.9 200.6 555.3Q201.2 555.8 202.1 555.8Q203 555.8 203.5 555.4Q204 555.1 204 554.5Q204 553.9 203.4 553.6Q202.8 553.3 201.5 553Q200.1 552.7 199.2 552.3Q198.4 552 197.7 551.2Q197.1 550.5 197.1 549.3Q197.1 548.3 197.7 547.4Q198.3 546.6 199.4 546.1Q200.5 545.6 201.9 545.6Q204.1 545.6 205.4 546.7Q206.7 547.8 206.8 549.6H203.9Q203.8 548.9 203.3 548.5Q202.7 548.1 201.8 548.1Q201 548.1 200.6 548.4Q200.1 548.7 200.1 549.2Q200.1 549.8 200.7 550.2Q201.3 550.5 202.6 550.8Q204 551.1 204.8 551.5Q205.7 551.8 206.3 552.6Q206.9 553.3 206.9 554.5Q206.9 555.6 206.4 556.4Q205.8 557.3 204.7 557.7Q203.6 558.2 202.2 558.2Q200.7 558.2 199.5 557.7Q198.3 557.1 197.6 556.2Q196.9 555.3 196.8 554.1Z M213.1 548.3V554.2Q213.1 554.9 213.4 555.1Q213.7 555.4 214.4 555.4H215.8V558H213.9Q210 558 210 554.2V548.3H208.5V545.8H210V542.8H213.1V545.8H215.8V548.3Z M229.3 552.8H220.3Q220.5 554.1 221.3 554.9Q222.1 555.6 223.3 555.6Q225 555.6 225.7 554.2H229Q228.5 555.9 227 557.1Q225.5 558.2 223.3 558.2Q221.6 558.2 220.2 557.4Q218.8 556.6 218 555.2Q217.2 553.8 217.2 551.9Q217.2 550 218 548.6Q218.8 547.2 220.1 546.4Q221.5 545.6 223.3 545.6Q225.1 545.6 226.5 546.4Q227.8 547.1 228.6 548.5Q229.3 549.9 229.3 551.6Q229.3 552.3 229.3 552.8ZM226.2 550.8Q226.1 549.6 225.3 548.9Q224.5 548.1 223.3 548.1Q222.1 548.1 221.3 548.8Q220.5 549.5 220.4 550.8Z M251.7 550.9V558H248.6V551.3Q248.6 549.8 247.9 549.1Q247.2 548.3 245.9 548.3Q244.7 548.3 243.9 549.1Q243.2 549.8 243.2 551.3V558H240.1V551.3Q240.1 549.8 239.4 549.1Q238.7 548.3 237.4 548.3Q236.1 548.3 235.4 549.1Q234.7 549.8 234.7 551.3V558H231.6V545.8H234.7V547.3Q235.3 546.5 236.2 546.1Q237.1 545.6 238.3 545.6Q239.7 545.6 240.8 546.2Q241.9 546.8 242.5 548Q243.1 546.9 244.3 546.3Q245.4 545.6 246.7 545.6Q249 545.6 250.3 547Q251.7 548.4 251.7 550.9Z M254.1 556.4Q254.1 555.6 254.6 555.1Q255.2 554.5 256 554.5Q256.8 554.5 257.4 555.1Q257.9 555.6 257.9 556.4Q257.9 557.1 257.4 557.6Q256.8 558.2 256 558.2Q255.2 558.2 254.6 557.6Q254.1 557.1 254.1 556.4Z M265.6 545.6Q267.9 545.6 269.4 546.7Q270.8 547.9 271.3 549.9H268Q267.8 549.1 267.1 548.7Q266.5 548.2 265.6 548.2Q264.3 548.2 263.5 549.2Q262.7 550.1 262.7 551.9Q262.7 553.6 263.5 554.6Q264.3 555.6 265.6 555.6Q267.4 555.6 268 553.9H271.3Q270.8 555.9 269.3 557Q267.8 558.2 265.6 558.2Q263.8 558.2 262.5 557.4Q261.1 556.6 260.3 555.2Q259.6 553.8 259.6 551.9Q259.6 550 260.3 548.6Q261.1 547.2 262.5 546.4Q263.8 545.6 265.6 545.6Z M272.8 551.9Q272.8 550 273.7 548.6Q274.5 547.2 275.9 546.4Q277.3 545.6 279.1 545.6Q280.9 545.6 282.3 546.4Q283.7 547.2 284.6 548.6Q285.4 550 285.4 551.9Q285.4 553.8 284.5 555.2Q283.7 556.6 282.2 557.4Q280.8 558.2 279 558.2Q277.3 558.2 275.9 557.4Q274.4 556.6 273.6 555.2Q272.8 553.8 272.8 551.9ZM282.2 551.9Q282.2 550.2 281.3 549.2Q280.4 548.3 279.1 548.3Q277.7 548.3 276.9 549.2Q276 550.2 276 551.9Q276 553.6 276.8 554.6Q277.7 555.5 279 555.5Q279.9 555.5 280.6 555.1Q281.3 554.7 281.8 553.9Q282.2 553.1 282.2 551.9Z M307.8 550.9V558H304.7V551.3Q304.7 549.8 304 549.1Q303.2 548.3 302 548.3Q300.7 548.3 300 549.1Q299.3 549.8 299.3 551.3V558H296.2V551.3Q296.2 549.8 295.5 549.1Q294.7 548.3 293.5 548.3Q292.2 548.3 291.5 549.1Q290.7 549.8 290.7 551.3V558H287.6V545.8H290.7V547.3Q291.3 546.5 292.3 546.1Q293.2 545.6 294.3 545.6Q295.7 545.6 296.9 546.2Q298 546.8 298.6 548Q299.2 546.9 300.3 546.3Q301.5 545.6 302.8 545.6Q305 545.6 306.4 547Q307.8 548.4 307.8 550.9Z" fill="#9FB0C4"/></svg>
